<svg width="24" height="24" viewBox="0 0 24 24" fill="none" xmlns="http://www.w3.org/2000/svg">
<path d="M21 4H3C1.896 4 1 4.896 1 6V18C1 19.104 1.896 20 3 20H21C22.104 20 23 19.104 23 18V6C23 4.896 22.104 4 21 4ZM3 6H11V18H3V6ZM21 18H12V6H21.003L21 18ZM20 13.5C20 13.225 19.775 13 19.5 13H18.5C18.225 13 18 13.225 18 13.5V16.5C18 16.775 18.225 17 18.5 17H19.5C19.775 17 20 16.775 20 16.5V13.5ZM17 7.5C17 7.225 16.775 7 16.5 7H13.5C13.225 7 13 7.225 13 7.5V12.5C13 12.775 13.225 13 13.5 13H16.5C16.775 13 17 12.775 17 12.5V7.5ZM18.5 10H19.5C19.775 10 20 9.775 20 9.5C20 9.225 19.775 9 19.5 9H18.5C18.225 9 18 9.225 18 9.5C18 9.775 18.225 10 18.5 10ZM18.5 12H19.5C19.775 12 20 11.775 20 11.5C20 11.225 19.775 11 19.5 11H18.5C18.225 11 18 11.225 18 11.5C18 11.775 18.225 12 18.5 12ZM13.5 15H16.5C16.775 15 17 14.775 17 14.5C17 14.225 16.775 14 16.5 14H13.5C13.225 14 13 14.225 13 14.5C13 14.775 13.225 15 13.5 15ZM16.5 16H13.5C13.225 16 13 16.225 13 16.5C13 16.775 13.225 17 13.5 17H16.5C16.775 17 17 16.775 17 16.5C17 16.225 16.775 16 16.5 16ZM18.5 8H19.5C19.775 8 20 7.775 20 7.5C20 7.225 19.775 7 19.5 7H18.5C18.225 7 18 7.225 18 7.5C18 7.775 18.225 8 18.5 8ZM10 7.5C10 7.225 9.775 7 9.5 7H4.5C4.225 7 4 7.225 4 7.5V10.5C4 10.775 4.225 11 4.5 11H9.5C9.775 11 10 10.775 10 10.5V7.5ZM9.501 14H4.501C4.227 14 4.001 14.225 4.001 14.5C4.001 14.775 4.227 15 4.501 15H9.501C9.775 15 10 14.775 10 14.5C10 14.225 9.775 14 9.501 14ZM9.501 12H4.501C4.227 12 4.001 12.225 4.001 12.5C4.001 12.775 4.227 13 4.501 13H9.501C9.775 13 10 12.775 10 12.5C10 12.225 9.775 12 9.501 12ZM9.501 16H4.501C4.227 16 4.001 16.225 4.001 16.5C4.001 16.775 4.227 17 4.501 17H9.501C9.775 17 10 16.775 10 16.5C10 16.225 9.775 16 9.501 16Z" fill="#111111"/>
</svg>
