<svg width="25" height="24" viewBox="0 0 25 24" fill="none" xmlns="http://www.w3.org/2000/svg">
<path d="M21.3333 11H19.8333V7C19.8333 5.89 18.9333 5 17.8333 5H13.8333V3.5C13.8333 2.83696 13.5699 2.20107 13.101 1.73223C12.6322 1.26339 11.9963 1 11.3333 1C10.6702 1 10.0343 1.26339 9.56549 1.73223C9.09664 2.20107 8.83325 2.83696 8.83325 3.5V5H4.83325C4.30282 5 3.79411 5.21071 3.41904 5.58579C3.04397 5.96086 2.83325 6.46957 2.83325 7V10.8H4.33325C5.83325 10.8 7.03325 12 7.03325 13.5C7.03325 15 5.83325 16.2 4.33325 16.2H2.83325V20C2.83325 20.5304 3.04397 21.0391 3.41904 21.4142C3.79411 21.7893 4.30282 22 4.83325 22H8.63325V20.5C8.63325 19 9.83325 17.8 11.3333 17.8C12.8333 17.8 14.0333 19 14.0333 20.5V22H17.8333C18.3637 22 18.8724 21.7893 19.2475 21.4142C19.6225 21.0391 19.8333 20.5304 19.8333 20V16H21.3333C21.9963 16 22.6322 15.7366 23.101 15.2678C23.5699 14.7989 23.8333 14.163 23.8333 13.5C23.8333 12.837 23.5699 12.2011 23.101 11.7322C22.6322 11.2634 21.9963 11 21.3333 11Z" fill="#111111"/>
</svg>
